<svg xmlns="http://www.w3.org/2000/svg" xmlns:xlink="http://www.w3.org/1999/xlink" width="139" zoomAndPan="magnify" viewBox="0 0 104.25 118.499997" height="158" preserveAspectRatio="xMidYMid meet" version="1.0">
  <defs>
    <clipPath id="7273c3bf89">
      <path d="M 19 13.605469 L 102.539062 13.605469 L 102.539062 97 L 19 97 Z M 19 13.605469 " clip-rule="nonzero"/>
    </clipPath>
    <clipPath id="1f0c4df4de">
      <path d="M 0 0.175781 L 80.421875 0.175781 L 80.421875 101.445312 L 0 101.445312 Z M 0 0.175781 " clip-rule="nonzero"/>
    </clipPath>
  </defs>
  <g clip-path="url(#7273c3bf89)">
    <path fill="#2962FF" d="M 29.535156 51.695312 C 34.488281 55.246094 40.441406 57.085938 46.34375 58.558594 C 52.253906 60.03125 56.816406 60.136719 63.828125 62.734375 C 65.738281 63.445312 68.265625 64.710938 69.613281 66.203125 C 67.449219 62.871094 63.605469 60.886719 59.867188 59.382812 C 54.15625 57.09375 49.675781 55.820312 44.484375 54.316406 C 39.292969 52.8125 34.050781 50.882812 30.015625 47.277344 C 25.421875 43.171875 22.757812 37.03125 22.570312 30.859375 C 22.371094 24.675781 24.566406 18.503906 28.335938 13.605469 C 25.703125 19.484375 27.03125 26.617188 30.570312 31.996094 C 34.113281 37.375 39.605469 41.210938 45.382812 44.050781 C 51.167969 46.890625 57.328125 48.867188 63.273438 51.351562 C 66.363281 52.644531 72.953125 54.945312 77.738281 59.6875 C 81.75 59.882812 85.613281 57.890625 82.878906 56.886719 C 79.660156 55.695312 79.441406 53.042969 79.441406 53.042969 C 80.589844 55.613281 85.769531 55.832031 89.5 56.050781 C 93.738281 56.300781 95.628906 57.535156 96.957031 59.046875 C 98.28125 60.5625 96.726562 63.414062 96.726562 63.414062 C 101.511719 65.347656 102.785156 67.59375 102.785156 67.59375 C 102.785156 67.59375 97.6875 64.929688 91.535156 66.421875 C 85.375 67.917969 83.179688 75.601562 83.179688 75.601562 C 78.5625 89.902344 72.546875 94.101562 62.90625 96.992188 C 62.90625 96.992188 66.101562 94.644531 67.816406 91.039062 C 68.921875 88.710938 69.8125 85.535156 67.636719 84.148438 C 65.519531 82.800781 62.855469 84.417969 60.640625 85.609375 C 54.332031 89.003906 46.226562 88.792969 40.105469 85.066406 C 43.492188 86.507812 47.417969 85.472656 50.730469 83.875 C 54.039062 82.289062 57.140625 80.136719 60.703125 79.238281 C 64.265625 78.328125 68.609375 79.050781 70.605469 82.140625 C 69.601562 78.851562 66.03125 76.855469 62.59375 76.699219 C 59.15625 76.542969 55.835938 77.847656 52.714844 79.300781 C 49.589844 80.753906 46.507812 82.402344 43.113281 83.007812 C 36.230469 84.242188 28.765625 80.480469 25.640625 74.226562 C 29.183594 78.058594 35.167969 78.476562 40.273438 77.367188 C 45.382812 76.261719 51.292969 73.785156 56.460938 73.035156 C 61.632812 72.28125 67.1875 72.980469 69.882812 77.460938 C 68.558594 72.324219 62.21875 70.152344 56.910156 69.933594 C 51.605469 69.703125 46.445312 71.457031 41.222656 72.417969 C 36.003906 73.378906 30.164062 73.410156 25.914062 70.222656 C 22.277344 67.488281 20.472656 62.527344 21.527344 58.097656 C 23.84375 63.539062 30.007812 66.378906 35.886719 67.027344 C 41.765625 67.6875 47.6875 66.652344 53.601562 66.808594 C 59.511719 66.964844 66.511719 67.308594 70.113281 72.011719 C 67.648438 67.269531 61.914062 65.703125 56.753906 64.355469 C 51.585938 63.007812 46.183594 62.945312 40.878906 62.339844 C 35.574219 61.734375 30.121094 60.46875 25.945312 57.148438 C 19.949219 52.425781 17.652344 43.570312 20.566406 36.519531 C 20.730469 42.609375 24.585938 48.144531 29.535156 51.695312 Z M 29.535156 51.695312 " fill-opacity="1" fill-rule="nonzero"/>
  </g>
  <path fill="#FFD700" d="M 92.527344 68.625 C 92.527344 68.625 90.21875 66.871094 84.996094 83.144531 C 79.773438 99.417969 67.460938 111.167969 44.328125 106.214844 C 44.328125 106.214844 62.03125 117.328125 75.417969 104.964844 C 85.894531 95.300781 87.660156 71.40625 92.527344 68.625 Z M 92.527344 68.625 " fill-opacity="1" fill-rule="nonzero"/>
  <g clip-path="url(#1f0c4df4de)">
    <path fill="#FF1493" d="M 51.46875 5.308594 C 63.796875 5.308594 74.609375 13.785156 80.722656 26.554688 L 80.722656 20.199219 C 72.511719 8.035156 59.519531 0.1875 44.910156 0.1875 C 20.117188 0.1875 0 22.824219 0 50.746094 C 0 78.671875 20.117188 101.308594 44.910156 101.308594 C 59.519531 101.308594 72.511719 93.460938 80.722656 81.292969 L 80.722656 74.9375 C 74.609375 87.710938 63.796875 96.183594 51.46875 96.183594 C 32.402344 96.183594 16.925781 75.84375 16.925781 50.746094 C 16.925781 25.648438 32.382812 5.308594 51.46875 5.308594 Z M 51.46875 5.308594 " fill-opacity="1" fill-rule="nonzero"/>
  </g>
</svg>